<svg width="61" height="61" viewBox="0 0 61 61" fill="none" xmlns="http://www.w3.org/2000/svg">
<mask id="mask0_955_33893" style="mask-type:luminance" maskUnits="userSpaceOnUse" x="0" y="0" width="61" height="61">
<path d="M0 0H60.5104V60.5104H0V0Z" fill="white"/>
</mask>
<g mask="url(#mask0_955_33893)">
<mask id="mask1_955_33893" style="mask-type:luminance" maskUnits="userSpaceOnUse" x="0" y="0" width="61" height="61">
<path d="M19.9844 0H40.526C45.8281 0 50.9115 2.10417 54.6562 5.85417C58.4062 9.59896 60.5104 14.6823 60.5104 19.9844V40.526C60.5104 45.8281 58.4062 50.9062 54.6562 54.6562C50.9115 58.401 45.8281 60.5104 40.526 60.5104H19.9844C14.6823 60.5104 9.59896 58.401 5.85417 54.6562C2.10417 50.9062 0 45.8281 0 40.526V19.9844C0 14.6823 2.10417 9.59896 5.85417 5.85417C9.59896 2.10417 14.6823 0 19.9844 0Z" fill="white"/>
</mask>
<g mask="url(#mask1_955_33893)">
<path d="M0 0H60.5104V60.5104H0V0Z" fill="#327BED"/>
</g>
</g>
<mask id="mask2_955_33893" style="mask-type:luminance" maskUnits="userSpaceOnUse" x="13" y="13" width="35" height="35">
<path d="M13.3965 13.0728H47.3079V47.0415H13.3965V13.0728Z" fill="white"/>
</mask>
<g mask="url(#mask2_955_33893)">
<path d="M30.7507 40.9531H14.4069C13.8496 40.9531 13.3965 40.5052 13.3965 39.9479V39.2292C13.3965 35.5885 14.8861 32.2865 17.2819 29.8906C18.7038 28.4688 20.4434 27.3698 22.3861 26.7083C22.0059 26.4479 21.6569 26.1563 21.334 25.8333C19.985 24.4792 19.1465 22.6146 19.1465 20.5469C19.1465 18.4844 19.9798 16.6146 21.334 15.2656C22.6882 13.9115 24.5527 13.0781 26.6204 13.0781C28.6829 13.0781 30.5527 13.9115 31.9017 15.2656C33.2559 16.6146 34.0892 18.4844 34.0892 20.5469C34.0892 22.6146 33.2559 24.4792 31.9017 25.8333C31.5788 26.1563 31.2298 26.4479 30.8496 26.7083C31.4902 26.9271 32.1048 27.1875 32.6934 27.4948C32.7194 27.5104 32.7454 27.526 32.7715 27.5417C34.4173 28.4167 35.86 29.625 37.0059 31.0729C37.5944 30.9427 38.2038 30.8698 38.834 30.8698C41.1204 30.8698 43.1882 31.7969 44.6882 33.2969C46.1882 34.7969 47.1152 36.8646 47.1152 39.151C47.1152 41.4427 46.1882 43.5104 44.6882 45.0104C43.1882 46.5052 41.1204 47.4323 38.834 47.4323C36.5475 47.4323 34.4746 46.5052 32.9746 45.0104C31.8809 43.9167 31.0944 42.5156 30.7454 40.9531H30.7507ZM34.1257 39.5052C33.735 39.1146 33.735 38.474 34.1257 38.0833C34.5215 37.6875 35.1569 37.6875 35.5475 38.0833L38.1413 40.6719L42.0059 36.8125C42.3965 36.4167 43.0371 36.4167 43.4277 36.8125C43.8236 37.2031 43.8236 37.8385 43.4277 38.2344L38.8548 42.8073C38.459 43.2031 37.8236 43.2031 37.4329 42.8073L34.1309 39.5052H34.1257ZM43.2663 34.7188C42.1309 33.5833 40.5632 32.8854 38.834 32.8854C37.1048 32.8854 35.5371 33.5833 34.4017 34.7188C33.2663 35.8542 32.5632 37.4219 32.5632 39.151C32.5632 40.8802 33.2663 42.4479 34.4017 43.5833C35.5371 44.7188 37.1048 45.4167 38.834 45.4167C40.5632 45.4167 42.1309 44.7188 43.2663 43.5833C44.4017 42.4479 45.0996 40.8802 45.0996 39.151C45.0996 37.4219 44.4017 35.8542 43.2663 34.7188Z" fill="white"/>
</g>
</svg>
