<svg width="12" height="9" viewBox="0 0 12 9" fill="none" xmlns="http://www.w3.org/2000/svg">
<path d="M3.52461 9C3.36075 8.99932 3.20385 8.93434 3.08833 8.81933L0.148806 5.91027C0.0474229 5.79311 -0.00555438 5.6424 0.000461522 5.48827C0.00647742 5.33413 0.0710435 5.18792 0.181257 5.07885C0.29147 4.96978 0.439213 4.90588 0.594961 4.89993C0.75071 4.89398 0.902994 4.9464 1.02138 5.04674L3.52461 7.52097L10.9786 0.147264C11.097 0.0469313 11.2493 -0.00549682 11.405 0.000456742C11.5608 0.00641031 11.7085 0.070307 11.8187 0.179378C11.929 0.288449 11.9935 0.434662 11.9995 0.588797C12.0056 0.742932 11.9526 0.893637 11.8512 1.0108L3.9609 8.81933C3.84538 8.93434 3.68848 8.99932 3.52461 9Z" fill="#3AE180"/>
</svg>
