<svg width="61" height="61" viewBox="0 0 61 61" fill="none" xmlns="http://www.w3.org/2000/svg">
<mask id="mask0_955_33895" style="mask-type:luminance" maskUnits="userSpaceOnUse" x="0" y="0" width="61" height="61">
<path d="M0 0H60.5104V60.5104H0V0Z" fill="white"/>
</mask>
<g mask="url(#mask0_955_33895)">
<mask id="mask1_955_33895" style="mask-type:luminance" maskUnits="userSpaceOnUse" x="0" y="0" width="61" height="61">
<path d="M19.9844 0H40.526C45.8281 0 50.9062 2.10937 54.6562 5.85417C58.401 9.60417 60.5104 14.6875 60.5104 19.9844V40.526C60.5104 45.8281 58.401 50.9115 54.6562 54.6562C50.9062 58.4062 45.8281 60.5104 40.526 60.5104H19.9844C14.6823 60.5104 9.59896 58.4062 5.85417 54.6562C2.10417 50.9115 0 45.8281 0 40.526V19.9844C0 14.6875 2.10417 9.60417 5.85417 5.85417C9.59896 2.10937 14.6823 0 19.9844 0Z" fill="white"/>
</mask>
<g mask="url(#mask1_955_33895)">
<path d="M0 0H60.5104V60.5104H0V0Z" fill="#327BED"/>
</g>
</g>
<mask id="mask2_955_33895" style="mask-type:luminance" maskUnits="userSpaceOnUse" x="7" y="17" width="46" height="25">
<path d="M7.78125 17.1562H52.7396V41.1354H7.78125V17.1562Z" fill="white"/>
</mask>
<g mask="url(#mask2_955_33895)">
<path d="M18.9847 23.0103V22.7916L18.766 22.4635C18.7347 22.3645 18.7139 22.2655 18.6982 22.1614C18.6982 22.1614 18.7399 22.0572 18.6982 22.0155C18.6566 21.9739 18.5107 21.7864 18.4795 21.3749C18.4535 20.9582 18.5368 20.9166 18.4795 20.8749C18.4274 20.828 18.3962 20.6301 18.3962 20.6301L18.568 20.401C18.568 20.401 18.4951 20.3437 18.5368 20.3124C18.5837 20.2864 18.8232 20.1874 18.8232 20.1874L18.7972 20.0832C18.9014 20.0416 19.0055 20.0103 19.1097 19.9843C19.1982 19.9687 19.3545 19.7655 19.3545 19.7655C19.3545 19.7655 19.5993 19.8124 19.667 19.7655C19.7399 19.7239 20.042 19.6405 20.0576 19.5989C20.068 19.552 19.9847 19.5103 20.1826 19.526C20.3857 19.5364 20.6149 19.6457 20.5732 19.526C20.5524 19.4843 20.5576 19.4478 20.5889 19.4166C20.6201 19.3801 20.6566 19.3749 20.6982 19.3957C20.7399 19.427 20.8285 19.2864 20.8701 19.2239C20.9118 19.1666 20.9274 19.1405 21.042 19.2239C21.1566 19.3124 21.2712 19.3697 21.2868 19.2395C21.3024 19.1093 21.1982 18.9843 21.3024 19.1093C21.4014 19.2395 21.542 19.2135 21.5316 19.2864C21.516 19.3541 21.7868 19.5572 21.8441 19.4426C21.9014 19.328 21.9587 19.2551 21.9847 19.3853C22.0368 19.5051 22.1045 19.6145 22.1878 19.7135L22.1045 19.9426C22.0628 20.0572 22.1045 20.0832 22.0316 20.1978C21.9639 20.3124 21.9587 20.401 21.9014 20.4843C21.8701 20.5416 21.8389 20.5989 21.818 20.6562C21.818 20.6562 22.0889 20.9843 22.0472 21.302C22.0055 21.6145 21.8597 21.7447 21.9587 21.9166C22.0628 22.0885 22.3597 22.4895 22.292 22.6614C22.2347 22.776 22.141 22.8437 22.016 22.8645L22.0003 23.151C22.0003 23.151 22.4587 23.1926 22.9326 22.703C23.4066 22.2187 23.3337 22.4635 23.4743 22.177C23.6201 21.8905 23.417 22.0468 23.6618 21.703C23.9066 21.3645 24.6774 19.9166 24.6774 19.9166L25.1357 19.0624C25.193 18.7916 25.2139 18.5207 25.2087 18.2447C25.1774 17.9114 25.2347 17.7707 25.4066 17.6718C25.5837 17.5676 25.7972 17.1562 25.9118 17.2135C26.0264 17.2707 26.3232 17.5989 26.2972 17.6874C26.266 17.7707 26.5003 17.7707 26.4795 18.0989C26.4639 18.427 26.4274 18.4062 26.3128 18.427C26.1982 18.453 26.4795 18.7343 26.266 18.9999C26.0524 19.2655 25.8389 19.2291 25.766 19.4895C25.6982 19.7447 25.5628 21.0728 25.4066 21.6926C25.2555 22.3072 25.0368 22.8905 24.5212 23.4218C24.0055 23.953 23.3024 24.3228 23.2347 24.5364C23.167 24.7499 23.0055 25.0364 23.292 25.4114C23.5785 25.7812 23.8649 25.8228 24.0941 26.1249C24.3232 26.427 24.4066 26.6978 24.5785 27.0572C24.7503 27.4114 25.0628 28.0312 25.1774 28.1301C25.292 28.2343 25.7087 28.6614 25.8076 28.6457C25.9066 28.6301 26.1514 28.7447 26.1774 28.8489C26.2087 28.9478 26.292 28.9062 26.3076 29.0624C26.3232 29.2187 26.391 29.2916 26.2764 29.3697C26.1618 29.4426 26.2087 29.4374 26.0941 29.5103C25.9795 29.5832 25.8337 29.6666 25.8337 29.6978C25.8337 29.7291 26.4066 30.2395 26.4222 30.6093C26.4378 30.9791 26.693 30.7812 26.8389 31.0937C26.9795 31.4114 27.1514 31.4687 27.3962 31.427C27.6357 31.3853 28.8701 31.5103 28.9378 31.526C29.0941 31.578 29.2503 31.6093 29.4118 31.6301C29.5837 31.6301 29.7243 31.7135 29.8285 31.7447C29.9274 31.7707 30.443 31.9843 30.443 31.9843C30.443 31.9843 30.6149 31.828 30.9274 32.0572C31.141 32.203 31.3649 32.328 31.5993 32.4426C31.6566 32.4895 32.042 32.4739 32.2868 32.7864C32.5316 33.1041 32.6722 33.3332 32.7451 33.3593C32.818 33.3853 33.443 33.6718 33.4587 33.7447C33.4743 33.8176 33.6305 33.8905 33.7451 33.9322C33.8649 33.9895 33.9899 34.0364 34.1201 34.0728C34.266 34.1145 34.4066 34.177 34.5316 34.2603C34.6201 34.3176 34.693 34.4166 34.7451 34.4062C34.8024 34.3905 35.3337 34.2916 35.3753 34.4062C35.4222 34.5155 35.6618 34.5885 35.6618 34.5885V33.8593C35.6618 33.8593 35.693 33.802 35.5212 33.328C35.3493 32.8593 34.8024 31.901 34.8024 31.901L34.6462 31.8124L34.5472 31.5416C34.5472 31.5416 33.7868 30.2968 33.4014 29.6978C33.016 29.0937 32.542 28.5676 32.4691 27.4947C32.4014 26.4218 32.8285 25.9791 32.8285 25.9791L32.7868 25.6614C32.7868 25.6614 33.2555 24.9062 33.2868 24.8593C33.3128 24.8176 33.7712 24.203 33.7712 24.203L34.5732 23.1718C34.5732 23.1718 35.417 22.2864 35.9639 22.026C36.6462 21.703 37.3493 21.4218 38.0628 21.1718C38.6097 20.9999 39.2243 21.0103 39.6514 20.901C40.0524 20.7812 40.4587 20.6822 40.8701 20.6093C41.0941 20.578 41.318 20.5676 41.542 20.5832L41.7139 20.1822C41.7139 20.1822 41.7868 20.0676 41.8128 20.026C41.8441 19.9843 41.9274 19.8801 41.9587 19.8385C42.0107 19.7864 42.0576 19.7291 42.0993 19.6666C42.1305 19.6093 42.1462 19.5989 42.2451 19.5364C42.3128 19.4947 42.3857 19.4582 42.4587 19.427C42.5576 19.3801 42.6305 19.3541 42.6878 19.3228C42.7451 19.2968 42.4743 19.2655 42.8597 19.2655C43.2451 19.2655 43.3597 19.2499 43.417 19.2812C43.4743 19.3072 43.5576 19.3541 43.6045 19.3801C43.6566 19.4166 43.7087 19.453 43.7607 19.4947C43.8389 19.5624 43.9118 19.6301 43.9743 19.7135C44.042 19.7864 44.1201 19.8541 44.2035 19.9114C44.2607 19.9582 44.3076 20.0103 44.3493 20.0728C44.3962 20.1457 44.4378 20.2291 44.4743 20.3124C44.4743 20.3124 44.5472 20.302 44.5628 20.4426C44.5785 20.5885 44.516 20.5989 44.5628 20.6874C44.6045 20.7707 44.5107 20.8593 44.5628 20.9166C44.6149 20.9739 44.6826 21.2187 44.5732 21.5155C44.4587 21.8124 44.417 21.6197 44.4587 21.8228C44.4951 21.9843 44.5889 22.1093 44.7295 22.1926C44.7868 22.2082 45.5628 22.3957 45.6201 22.4374C45.6774 22.4739 46.9899 22.8801 47.0368 22.9374C47.0837 22.9947 47.6097 22.9062 48.0524 23.1822C48.4951 23.453 49.7243 24.078 49.7712 24.1249C49.8128 24.1666 50.6566 24.5937 50.6566 24.5937C50.8076 24.6562 50.9535 24.7395 51.0837 24.8385C51.2295 24.9687 51.6149 24.7812 52.016 25.026C52.417 25.2707 52.6462 25.8801 52.6462 25.9114C52.6462 25.9426 52.7139 26.328 52.6462 26.401C52.5732 26.4687 52.542 26.7395 52.417 26.6718C52.3232 26.6145 52.2295 26.552 52.1462 26.4843C52.1462 26.4843 51.9587 26.5572 51.8545 26.4843C51.7555 26.4114 51.7295 26.4426 51.6722 26.401C51.6149 26.3593 51.5524 26.3437 51.4847 26.3541C51.443 26.3697 51.2712 26.2707 51.2139 26.1822C51.1566 26.0989 51.0837 26.0312 51.0003 25.9791C50.8232 25.8697 50.6618 25.7447 50.5107 25.6093C50.266 25.4062 49.9951 25.2447 49.7035 25.1197C49.6462 25.1041 48.9118 24.7499 48.4691 24.6926C48.0264 24.6353 47.8128 24.6614 47.5264 24.4635C47.2399 24.2603 46.8962 23.9478 46.8545 23.9478C46.8128 23.9478 44.8805 23.703 44.8805 23.703L43.5628 23.4895C43.5628 23.4895 42.8337 23.776 42.8024 23.8332C42.7764 23.8905 42.4899 24.2603 42.4899 24.2603C42.4899 24.2603 42.6618 24.7343 42.917 24.8645C43.1774 24.9895 43.5316 24.9478 43.9222 25.3072C44.3076 25.6666 45.2243 26.3801 45.5524 26.4947C45.8805 26.6093 46.6097 27.2968 46.9378 27.3385C47.266 27.3801 47.3701 27.3645 47.5941 27.2968C47.8232 27.2239 48.3285 27.3957 48.3285 27.3957C48.3285 27.3957 48.9535 27.8697 48.8285 28.0572C48.766 28.1666 48.667 28.2187 48.542 28.2135C48.4743 28.2551 48.4222 28.3072 48.3805 28.3697C48.3389 28.453 48.3805 28.401 48.266 28.4739C48.1878 28.5155 48.1149 28.5051 48.0524 28.4374C48.0524 28.4374 48.0212 28.6197 47.9222 28.651C47.8232 28.677 47.9222 28.8072 47.7347 28.7916C47.5524 28.7812 47.4326 28.5051 47.2087 28.578C46.9847 28.651 46.7191 28.2916 46.6618 28.276C46.6045 28.2551 46.3493 27.9322 46.3076 27.9687C46.2607 28.0103 45.3337 27.6093 45.3337 27.6093C45.3337 27.6093 43.5993 27.0103 43.2451 26.8541C42.8857 26.6926 42.2295 26.0832 42.2295 26.0832L41.0732 25.0937C41.0732 25.0937 38.6514 25.7395 38.2816 26.2655C38.2816 26.2655 38.3962 26.2655 38.3545 26.5103C38.3128 26.7551 38.3232 26.8697 38.3701 26.953C38.4118 27.0416 38.6514 27.2655 38.6826 27.5416C38.7139 27.8124 38.7399 28.3124 38.7399 28.3124C38.7399 28.3124 39.2139 27.4426 39.7555 27.7239C40.1201 27.901 40.2868 28.1926 40.2399 28.5989C40.2243 28.6562 40.167 29.2864 39.8545 29.6301C39.5368 29.9739 39.0524 30.0885 38.8545 30.4166C38.6514 30.7447 38.1514 31.3176 37.7087 31.401C37.266 31.4895 37.3232 31.4322 37.1618 31.1874C37.0055 30.9426 37.0785 30.5885 37.0785 30.5885L37.1201 30.3749L36.766 30.2135L36.6514 30.3853C36.7087 30.5207 36.7607 30.6614 36.8076 30.802C36.8076 30.8437 37.0212 31.5312 37.0212 32.203C37.0212 32.203 37.3232 32.8905 37.2764 33.2499C37.2295 33.6041 37.3076 33.578 37.3076 33.578C37.3076 33.578 37.3493 34.0468 37.3649 34.0937C37.3805 34.1353 37.8805 35.2812 37.8649 35.3228C37.8493 35.3645 38.0941 35.4374 38.0941 35.4374C38.0941 35.4374 38.068 35.1353 38.2243 35.1666C38.3805 35.1978 38.3389 35.1197 38.3805 35.1926C38.4274 35.2551 38.4899 35.2916 38.568 35.3072C38.6097 35.3228 39.0941 34.8801 39.193 34.7187C39.2972 34.5624 39.3805 34.5207 39.3962 34.4791C39.4118 34.4374 39.568 34.0624 39.7555 33.9478C39.943 33.8385 40.0003 33.6457 40.1982 33.8072C40.4014 33.9687 40.3128 34.3801 40.3128 34.3801C40.3128 34.3801 40.3285 35.3905 39.9274 35.9947C39.5264 36.5989 39.8285 36.953 39.7139 37.2239C39.5993 37.4947 39.6566 37.4687 39.5264 37.552C39.3962 37.6405 39.3545 37.6978 39.2712 37.6666C39.1826 37.6405 38.7243 37.5416 38.7243 37.5416C38.7243 37.5416 39.2243 38.5416 39.5003 38.7707C39.7712 38.9999 40.0993 39.302 40.1566 39.3541C40.2139 39.4114 41.4274 40.3853 41.4274 40.3853C41.4274 40.3853 41.917 40.6041 41.8701 40.8176C41.8285 41.0312 40.3545 40.9739 40.2972 40.9895C39.9222 40.9478 39.5524 40.8801 39.1826 40.7864C39.0264 40.7291 38.943 40.6822 38.7972 40.7135C38.6566 40.7395 38.667 40.5676 38.6566 40.4999C38.6201 40.3801 38.5889 40.2603 38.568 40.1405C38.5785 40.0207 38.5732 39.901 38.5576 39.7812C38.5368 39.7082 38.5316 39.6301 38.542 39.552L37.5264 38.0312C37.5264 38.0312 36.667 36.7135 36.6826 36.703C36.0472 36.4895 35.3962 36.3176 34.7347 36.1874C33.9899 36.0572 33.792 36.1874 33.3076 35.8749C32.818 35.5572 32.792 35.4999 32.7503 35.5312C32.7035 35.5572 32.1045 35.0885 32.1045 35.0885C32.1045 35.0885 31.6774 34.7135 31.5889 34.6978C31.5003 34.6874 31.2035 34.3124 30.2295 34.526C29.2555 34.7447 28.7399 34.5155 28.7399 34.5572C28.7399 34.5989 28.6566 35.1457 28.6566 35.1457L27.1618 34.8697C27.1618 34.8697 27.016 35.4426 27.0055 35.5832C26.9899 35.7239 26.8493 36.7447 26.8493 36.7447C26.8493 36.7447 26.7868 36.7551 26.8024 37.0468C26.818 37.3385 27.016 37.9582 26.417 38.4218C25.818 38.8801 24.9847 38.9635 24.943 38.9791C24.9014 38.9895 24.0993 38.9791 23.4691 39.1041C22.8389 39.2343 22.3128 39.3072 22.2399 39.2916C22.167 39.276 22.7139 39.276 22.167 39.276C21.6253 39.276 20.1514 39.3801 20.1253 39.4218C20.0941 39.4635 19.5524 39.4218 18.9795 39.677C18.4066 39.9374 18.2607 39.9374 18.2607 39.9374C18.2607 39.9374 17.1774 40.0364 16.6878 40.3385C16.2035 40.6353 15.391 41.0885 15.4482 40.6041C15.5055 40.1145 16.2764 39.302 16.6357 38.9582C16.8649 38.7291 17.0628 38.4791 17.2243 38.1978C17.2243 38.1978 17.641 37.4843 18.0837 37.526C18.5264 37.5676 18.7555 38.026 19.0264 38.1301C19.2972 38.2291 20.2399 37.8697 20.3128 37.8437C20.3857 37.8124 21.3024 37.5989 21.9014 37.2551C22.5003 36.9114 24.3597 37.0989 24.3597 37.0989C24.3597 37.0989 24.2451 36.7239 24.2347 36.6405C24.2191 36.5572 24.1774 36.1666 24.1462 36.0676C24.1201 35.9687 24.1774 35.8801 24.0889 35.8385C23.9951 35.802 23.9482 35.7291 23.9587 35.6249C23.9691 35.5364 23.9691 35.453 23.9587 35.3645C23.9535 35.276 23.9535 35.1874 23.9587 35.0937C23.9587 34.9687 23.9743 34.8801 23.9482 34.8385C23.917 34.7916 24.0055 34.9114 23.917 34.7968C23.8337 34.6822 23.8753 34.5937 23.8441 34.5103C23.818 34.427 23.0212 33.1614 22.9222 33.2551C22.8285 33.3541 22.6045 32.453 22.3128 32.2916C22.0264 32.1301 21.8024 31.8437 21.7712 31.6822C21.7347 31.526 21.0264 29.2395 21.0264 29.2395C21.0264 29.2395 20.5107 28.526 20.4222 28.526C20.3285 28.526 19.167 27.4999 19.167 27.4999C19.167 27.4999 18.068 26.0572 17.9743 25.9791C17.8753 25.8957 17.3285 25.2499 17.3285 25.2499L14.6878 24.1197C14.6878 24.1197 13.3024 23.828 12.4014 23.3437C11.5003 22.8593 9.34408 21.9947 9.34408 21.9947C9.34408 21.9947 8.34408 21.9582 8.15137 22.026C7.95866 22.0885 7.79199 21.8957 7.79199 21.7343V21.4114C7.79199 21.4114 7.89095 21.1249 7.95345 20.9635C8.02116 20.802 8.17741 20.578 8.37012 20.5103C8.56283 20.4478 9.08366 20.4114 9.20866 20.4791C9.33366 20.5468 9.50033 20.4478 9.66178 20.6405C9.82324 20.8332 10.0472 21.1249 10.141 21.1249C10.2399 21.1249 11.7191 21.8957 12.6514 21.9582C13.5889 22.026 13.5837 22.1197 15.0368 22.7343C16.4847 23.3437 16.7399 23.151 16.8701 23.1822C17.0003 23.2135 18.2295 22.8645 18.9847 23.0103Z" fill="white"/>
</g>
</svg>
