<svg width="61" height="61" viewBox="0 0 61 61" fill="none" xmlns="http://www.w3.org/2000/svg">
<mask id="mask0_955_33892" style="mask-type:luminance" maskUnits="userSpaceOnUse" x="0" y="0" width="61" height="61">
<path d="M0 0H60.5104V60.5104H0V0Z" fill="white"/>
</mask>
<g mask="url(#mask0_955_33892)">
<mask id="mask1_955_33892" style="mask-type:luminance" maskUnits="userSpaceOnUse" x="0" y="0" width="61" height="61">
<path d="M19.9844 0H40.526C45.8281 0 50.9115 2.10417 54.6562 5.85417C58.4062 9.59896 60.5104 14.6823 60.5104 19.9844V40.526C60.5104 45.8281 58.4062 50.9062 54.6562 54.6562C50.9115 58.401 45.8281 60.5104 40.526 60.5104H19.9844C14.6823 60.5104 9.59896 58.401 5.85417 54.6562C2.10417 50.9062 0 45.8281 0 40.526V19.9844C0 14.6823 2.10417 9.59896 5.85417 5.85417C9.59896 2.10417 14.6823 0 19.9844 0Z" fill="white"/>
</mask>
<g mask="url(#mask1_955_33892)">
<path d="M0 0H60.5104V60.5104H0V0Z" fill="#327BED"/>
</g>
</g>
<mask id="mask2_955_33892" style="mask-type:luminance" maskUnits="userSpaceOnUse" x="14" y="12" width="32" height="37">
<path d="M14.8652 12.2812H45.8392V48.25H14.8652V12.2812Z" fill="white"/>
</mask>
<g mask="url(#mask2_955_33892)">
<path d="M45.5735 40.8595L45.0475 38.073C44.985 37.7084 44.6621 37.448 44.2767 37.448H43.5839L41.1308 23.8126C41.0214 23.1667 40.4225 22.6928 39.7089 22.6772L38.985 22.6667C38.2767 22.6667 37.6517 23.1199 37.5214 23.7709L34.7767 37.448H34.0527C33.6777 37.448 33.3548 37.7032 33.2871 38.0626L32.761 40.849C32.7142 41.0574 32.7714 41.2761 32.9069 41.448C33.0579 41.6303 33.2819 41.7397 33.5267 41.7397H44.8079C45.0423 41.7397 45.2662 41.6355 45.4173 41.4584C45.5527 41.2865 45.61 41.073 45.5735 40.8595ZM36.7767 32.1459C37.2662 32.3022 38.136 32.5157 39.235 32.5157C39.9694 32.5157 40.8079 32.4167 41.6933 32.1355L41.8392 32.9272C39.2454 33.823 36.9642 33.0626 36.6152 32.9324L36.7767 32.1459ZM33.6985 40.8178L34.1621 38.3647H34.5892L34.5214 38.698C34.5214 38.7084 34.5267 38.7136 34.5214 38.724V38.7345C34.5162 38.7449 34.5214 38.7501 34.5214 38.7605C34.4746 39.0313 34.6308 39.297 34.8964 39.3803C35.1464 39.4636 35.3912 39.5313 35.6308 39.599C35.6621 39.6042 35.6933 39.6095 35.7194 39.6199C36.9069 39.9272 38.0423 40.0417 39.0631 40.0417C41.0683 40.0417 42.6204 39.6147 43.2506 39.4063C43.3287 39.3803 43.3964 39.3542 43.4485 39.3386C43.5735 39.2917 43.6725 39.2084 43.7402 39.0938C43.7662 39.047 43.7871 38.9897 43.8027 38.9376C43.8027 38.9324 43.8027 38.9272 43.8079 38.922C43.8131 38.8855 43.8131 38.849 43.8131 38.8126C43.8131 38.7761 43.8183 38.7449 43.8183 38.7084L43.7558 38.3647H44.1673L44.6308 40.8178H33.6985ZM30.2767 43.2136C30.2089 42.7865 29.8496 42.4792 29.4173 42.4792H28.4485L25.3131 22.8282C25.1829 22.0053 24.4798 21.3907 23.6308 21.3699L22.7142 21.3542C22.6985 21.3542 22.6881 21.3542 22.6777 21.3542C21.8339 21.3542 21.1256 21.9532 20.9798 22.7865L17.4642 42.4792H16.4537C16.0267 42.4792 15.6673 42.7865 15.5996 43.2084L14.9329 47.2032C14.886 47.4532 14.9589 47.7136 15.1256 47.9063C15.2923 48.1042 15.5319 48.2136 15.7871 48.2136H30.0892C30.3444 48.2136 30.5839 48.1042 30.7506 47.9063C30.9173 47.7136 30.9902 47.4532 30.9485 47.2032L30.2767 43.2136ZM19.8235 34.4845C20.4121 34.7032 21.5631 35.047 23.0267 35.047C23.9902 35.047 25.0839 34.8959 26.2402 34.4688L26.4798 35.974C22.8339 37.448 19.6517 36.0157 19.6152 36.0001C19.5996 35.9897 19.5787 35.9897 19.5579 35.9845L19.8235 34.4845ZM15.8444 47.297L16.5006 43.3959H17.3027L17.1673 44.1615C17.11 44.4584 17.2767 44.7501 17.5579 44.8542C17.8496 44.9636 18.1412 45.0626 18.4277 45.1511C18.511 45.172 18.5944 45.198 18.6777 45.2188C18.9017 45.2865 19.1256 45.3438 19.3496 45.3959C19.4173 45.4115 19.4798 45.4272 19.5475 45.4428C19.8235 45.5053 20.0996 45.5574 20.3704 45.599C20.4329 45.6147 20.4954 45.6199 20.5631 45.6303C20.7767 45.6615 20.9902 45.6876 21.1985 45.7084C21.2767 45.7188 21.3548 45.7292 21.4277 45.7345C21.6881 45.7553 21.9433 45.7761 22.1933 45.7865C22.1985 45.7865 22.2037 45.7865 22.2089 45.7865C22.4121 45.7918 22.61 45.797 22.8027 45.797C22.86 45.797 22.9069 45.797 22.9642 45.797C23.0214 45.797 23.0735 45.7917 23.1308 45.7917C23.3704 45.7865 23.6048 45.7813 23.8339 45.7657C24.0631 45.7501 24.2871 45.7292 24.5058 45.7032C24.5579 45.698 24.6048 45.6928 24.6517 45.6876C24.8652 45.6615 25.0683 45.6355 25.2662 45.6042C25.2871 45.6042 25.3131 45.599 25.3339 45.5938C25.5162 45.5678 25.6881 45.5365 25.8548 45.5001C25.8964 45.4949 25.9329 45.4845 25.9694 45.4792C26.1464 45.4428 26.3183 45.4063 26.4798 45.3699C26.511 45.3595 26.5371 45.3542 26.5735 45.349C26.7089 45.3126 26.8444 45.2813 26.9694 45.2449C26.9954 45.2397 27.0267 45.2292 27.0527 45.224C27.1881 45.1824 27.3183 45.1459 27.4381 45.1095C27.4694 45.099 27.4954 45.0938 27.5267 45.0834C27.6308 45.0522 27.7246 45.0209 27.8131 44.9897C27.8287 44.9845 27.8444 44.9792 27.8548 44.974C27.9537 44.9428 28.0371 44.9115 28.1152 44.8803C28.136 44.8751 28.1517 44.8699 28.1725 44.8595C28.2402 44.8334 28.3027 44.8126 28.3496 44.7917C28.5996 44.6824 28.7506 44.4168 28.7142 44.1459V44.1355L28.5944 43.3959H29.3756L30.0319 47.297H15.8444ZM27.3652 26.0313H35.3912C35.6048 26.0313 35.7975 25.9428 35.9277 25.7813C36.0527 25.6355 36.1048 25.4428 36.0683 25.2553L35.6881 23.2761C35.6308 22.9532 35.3496 22.7292 35.011 22.7292H34.636L32.9173 13.1928C32.8235 12.672 32.3444 12.2917 31.7767 12.2813L31.2662 12.2761C31.2558 12.2761 31.2454 12.2761 31.235 12.2761C30.6673 12.2761 30.1881 12.6459 30.0892 13.1667L28.1569 22.7345H27.7402C27.4069 22.7345 27.1204 22.9636 27.0631 23.2761L26.6881 25.2501C26.6517 25.4376 26.7037 25.6303 26.8287 25.7813C26.9589 25.9376 27.1569 26.0313 27.3652 26.0313ZM29.7871 19.2865C30.1621 19.3907 30.735 19.5105 31.4329 19.5105C31.9329 19.5105 32.4954 19.448 33.0839 19.2761L33.1412 19.5782C31.5579 20.0834 30.1673 19.7292 29.7246 19.5886L29.7871 19.2865ZM27.9277 23.6511H27.9642L27.9485 23.724C27.8964 23.9324 27.9694 24.1355 28.1256 24.2657C28.1777 24.3074 28.2402 24.3438 28.3079 24.3647C28.3912 24.3959 28.4746 24.4115 28.5579 24.4376C28.6881 24.474 28.8131 24.5105 28.9381 24.5417C29.0631 24.573 29.1881 24.6042 29.3079 24.6303C29.4017 24.6459 29.4902 24.6667 29.5787 24.6824C30.0371 24.7605 30.4798 24.8074 30.9069 24.8282C30.9381 24.8282 30.9694 24.8282 31.0058 24.8282C31.0996 24.8334 31.2037 24.8386 31.2975 24.8386C32.9225 24.8386 34.1464 24.448 34.4746 24.3334C34.7089 24.2449 34.8548 24.0001 34.8183 23.7553L34.7975 23.6459H34.8235L35.1048 25.1147H27.6517L27.9277 23.6511Z" fill="white"/>
</g>
</svg>
