<svg width="61" height="61" viewBox="0 0 61 61" fill="none" xmlns="http://www.w3.org/2000/svg">
<mask id="mask0_955_33894" style="mask-type:luminance" maskUnits="userSpaceOnUse" x="0" y="0" width="61" height="61">
<path d="M0 0.213623H60.5104V60.7188H0V0.213623Z" fill="white"/>
</mask>
<g mask="url(#mask0_955_33894)">
<mask id="mask1_955_33894" style="mask-type:luminance" maskUnits="userSpaceOnUse" x="0" y="0" width="61" height="61">
<path d="M19.9844 0.213623H40.526C45.8281 0.213623 50.9115 2.31779 54.6562 6.06779C58.4062 9.81258 60.5104 14.8959 60.5104 20.1928V40.7397C60.5104 46.0365 58.4062 51.1199 54.6562 54.8699C50.9115 58.6147 45.8281 60.7188 40.526 60.7188H19.9844C14.6823 60.7188 9.59896 58.6147 5.85417 54.8699C2.10417 51.1199 0 46.0365 0 40.7397V20.1928C0 14.8959 2.10417 9.81258 5.85417 6.06779C9.59896 2.31779 14.6823 0.213623 19.9844 0.213623Z" fill="white"/>
</mask>
<g mask="url(#mask1_955_33894)">
<path d="M0 0.213623H60.5104V60.7188H0V0.213623Z" fill="#327BED"/>
</g>
</g>
<mask id="mask2_955_33894" style="mask-type:luminance" maskUnits="userSpaceOnUse" x="11" y="12" width="38" height="36">
<path d="M11.6406 12.802H48.6042V47.7708H11.6406V12.802Z" fill="white"/>
</mask>
<g mask="url(#mask2_955_33894)">
<path d="M30.9952 13.4844L35.1619 24.3125C35.2712 24.599 35.5421 24.7969 35.8494 24.8177L47.839 25.651C48.5577 25.6979 48.8442 26.6042 48.2869 27.0625L38.5421 35C38.2869 35.2031 38.1879 35.5417 38.2869 35.8542L41.7296 46.8125C41.9535 47.5104 41.1879 48.1146 40.5577 47.7344L30.6671 41.7448C30.4119 41.5885 30.0942 41.5885 29.839 41.7448L19.9483 47.7344C19.3181 48.1146 18.5525 47.5104 18.7765 46.8125L22.2192 35.8542C22.3181 35.5417 22.214 35.2031 21.964 35L12.2192 27.0625C11.6567 26.6042 11.9483 25.6979 12.6671 25.651L24.6567 24.8177C24.964 24.7969 25.2296 24.599 25.3442 24.3125L29.5108 13.4844C29.7712 12.8021 30.7348 12.8021 30.9952 13.4844Z" fill="white"/>
</g>
</svg>
