<svg width="61" height="61" viewBox="0 0 61 61" fill="none" xmlns="http://www.w3.org/2000/svg">
<mask id="mask0_955_33891" style="mask-type:luminance" maskUnits="userSpaceOnUse" x="0" y="0" width="61" height="61">
<path d="M0 0H60.5104V60.5104H0V0Z" fill="white"/>
</mask>
<g mask="url(#mask0_955_33891)">
<mask id="mask1_955_33891" style="mask-type:luminance" maskUnits="userSpaceOnUse" x="0" y="0" width="61" height="61">
<path d="M19.9844 0H40.526C45.8281 0 50.9115 2.10417 54.6562 5.85417C58.4062 9.59896 60.5104 14.6823 60.5104 19.9844V40.526C60.5104 45.8281 58.4062 50.9062 54.6562 54.6562C50.9115 58.401 45.8281 60.5104 40.526 60.5104H19.9844C14.6823 60.5104 9.59896 58.401 5.85417 54.6562C2.10417 50.9062 0 45.8281 0 40.526V19.9844C0 14.6823 2.10417 9.59896 5.85417 5.85417C9.59896 2.10417 14.6823 0 19.9844 0Z" fill="white"/>
</mask>
<g mask="url(#mask1_955_33891)">
<path d="M0 0H60.5104V60.5104H0V0Z" fill="#327BED"/>
</g>
</g>
<mask id="mask2_955_33891" style="mask-type:luminance" maskUnits="userSpaceOnUse" x="13" y="37" width="9" height="14">
<path d="M13.9746 37.5469H21.9746V50.6615H13.9746V37.5469Z" fill="white"/>
</mask>
<g mask="url(#mask2_955_33891)">
<path d="M15.6566 38.6196C15.443 38.5728 15.2451 38.5155 15.0576 38.4478L17.2712 41.3696L15.4691 48.4478C15.2139 49.4582 15.8285 50.4894 16.8441 50.7498C17.0003 50.7915 17.1566 50.8071 17.3128 50.8071C18.1566 50.8071 18.9274 50.2394 19.1462 49.38L20.7503 43.0571L20.6982 42.9686L15.6566 38.6196Z" fill="white"/>
</g>
<mask id="mask3_955_33891" style="mask-type:luminance" maskUnits="userSpaceOnUse" x="13" y="24" width="11" height="19">
<path d="M13.2451 24.2129H23.3076V42.8796H13.2451V24.2129Z" fill="white"/>
</mask>
<g mask="url(#mask3_955_33891)">
<path d="M15.8646 38.1972L19.9427 41.7128L22.5833 38.9837L18.6146 35.5618C18.6302 35.3847 18.6458 35.2024 18.6667 35.0253L15.5365 32.6608C14.974 32.2389 14.7708 31.4889 15.0417 30.8326L16.7135 26.8066C16.9531 26.2233 17.5156 25.8483 18.1406 25.8483C18.3438 25.8483 18.5469 25.8899 18.7344 25.9681C19.5208 26.2962 19.8958 27.2024 19.5729 27.9889L18.3594 30.916L19.401 31.7024C19.7344 30.5878 20.1094 29.5462 20.4062 28.666C21.0417 27.2285 20.7135 25.3587 19.474 24.8691C18.2292 24.3795 16.276 24.8326 15.2292 26.9316C13.8021 29.8274 13.3177 31.7753 13.2656 35.166C13.3958 37.317 14.6354 37.9576 15.8646 38.1972Z" fill="white"/>
</g>
<path d="M20.4014 42.1087L21.0524 42.6712L24.6357 48.5827C24.9951 49.166 25.6201 49.4941 26.2607 49.4941C26.5941 49.4941 26.9326 49.4056 27.2399 49.2181C28.1357 48.6764 28.4222 47.5098 27.8805 46.6139L24.1357 40.4473C24.0368 40.2754 23.9066 40.1243 23.7555 39.9941L23.0472 39.3848L20.4014 42.1087Z" fill="white"/>
<path d="M17.9483 31.0259L19.2608 27.8645C19.5212 27.2447 19.2243 26.5363 18.6046 26.2759C17.99 26.0207 17.2764 26.3124 17.0212 26.9322L15.3493 30.9634C15.1358 31.4738 15.2973 32.0624 15.74 32.3957L20.2191 35.7759C20.4379 35.9426 20.6931 36.0207 20.9483 36.0207C21.3181 36.0207 21.6775 35.854 21.9171 35.5363C22.3233 34.9999 22.2139 34.2395 21.6775 33.8384L17.9483 31.0259Z" fill="white"/>
<path d="M22.5268 17.9422C22.9799 18.0047 23.3966 18.1453 23.7872 18.3745C24.183 18.5985 24.5163 18.8901 24.7872 19.2495C25.0632 19.6089 25.2611 20.0099 25.3757 20.4474C25.4955 20.8849 25.5216 21.3276 25.4643 21.7756C25.4018 22.2235 25.2611 22.6453 25.032 23.036C24.808 23.4266 24.5111 23.7599 24.1518 24.036C23.7924 24.312 23.3966 24.5047 22.9591 24.6245C22.5216 24.7391 22.0788 24.7703 21.6309 24.7078C21.183 24.6505 20.7611 24.5047 20.3705 24.2808C19.9799 24.0516 19.6466 23.7599 19.3705 23.4006C19.0945 23.0412 18.8966 22.6453 18.782 22.2078C18.6674 21.7703 18.6361 21.3276 18.6986 20.8745C18.7559 20.4266 18.9018 20.0099 19.1257 19.6141C19.3549 19.2235 19.6466 18.8901 20.0059 18.6141C20.3653 18.3433 20.7611 18.1453 21.1986 18.0308C21.6361 17.911 22.0788 17.8849 22.5268 17.9422Z" fill="white"/>
<path d="M31.3652 46.5365L34.6204 41.2396C34.1309 41.1302 33.6777 40.9271 33.2871 40.6406L29.4434 45.9792L31.3652 46.5365Z" fill="white"/>
<path d="M38.2194 35.3802L43.4694 26.8438H43.2194L37.5371 34.7396C37.7923 34.9219 38.0215 35.1354 38.2194 35.3802Z" fill="white"/>
<path d="M38.4427 37.6875C38.4427 38.0885 38.3646 38.4792 38.2135 38.849C38.0573 39.2188 37.8385 39.5469 37.5521 39.8333C37.2708 40.1198 36.9427 40.3385 36.5677 40.4896C36.1979 40.6458 35.8125 40.724 35.4062 40.724C35.0052 40.724 34.6198 40.6458 34.25 40.4896C33.875 40.3385 33.5469 40.1198 33.2656 39.8333C32.9792 39.5469 32.7604 39.2188 32.6042 38.849C32.4531 38.4792 32.375 38.0885 32.375 37.6875C32.375 37.2865 32.4531 36.901 32.6042 36.526C32.7604 36.1562 32.9792 35.8281 33.2656 35.5417C33.5469 35.2604 33.875 35.0417 34.25 34.8854C34.6198 34.7344 35.0052 34.6562 35.4062 34.6562C35.8125 34.6562 36.1979 34.7344 36.5677 34.8854C36.9427 35.0417 37.2708 35.2604 37.5521 35.5417C37.8385 35.8281 38.0573 36.1562 38.2135 36.526C38.3646 36.901 38.4427 37.2865 38.4427 37.6875Z" fill="white"/>
<mask id="mask4_955_33891" style="mask-type:luminance" maskUnits="userSpaceOnUse" x="39" y="12" width="9" height="10">
<path d="M39.3076 12.2129H47.2139V21.5462H39.3076V12.2129Z" fill="white"/>
</mask>
<g mask="url(#mask4_955_33891)">
<path d="M40.9018 19.6557C40.9122 19.6557 40.9226 19.6557 40.933 19.6557C41.2351 19.6401 41.4643 19.3796 41.4434 19.0828C41.3028 16.6921 41.5736 15.4161 41.8809 14.7859V18.3223C41.8809 18.3484 41.8809 18.3744 41.8862 18.4005L41.6362 20.989H43.3237L43.532 18.8484H43.907L44.1153 20.989H45.8028L45.5528 18.4005C45.5528 18.3744 45.558 18.3484 45.558 18.3223V14.7859C45.8601 15.4161 46.1309 16.6921 45.9955 19.0828C45.9747 19.3796 46.2039 19.6401 46.5059 19.6557C46.5164 19.6557 46.5268 19.6557 46.5372 19.6557C46.8237 19.6557 47.0632 19.4317 47.0789 19.1453C47.2455 16.2703 46.8862 14.3953 46.0112 13.5723C45.6153 13.2026 45.2299 13.1505 45.0476 13.1453C45.0424 13.1453 45.0372 13.1453 45.032 13.1453H44.6049C44.4747 13.4838 44.1257 13.7234 43.7195 13.7234C43.3132 13.7234 42.9643 13.4838 42.8341 13.1453H42.407C42.4018 13.1453 42.3966 13.1453 42.3914 13.1453C42.2091 13.1505 41.8184 13.2026 41.4278 13.5723C40.5476 14.3953 40.1882 16.2703 40.3601 19.1453C40.3757 19.4317 40.6153 19.6557 40.9018 19.6557Z" fill="white"/>
</g>
<mask id="mask5_955_33891" style="mask-type:luminance" maskUnits="userSpaceOnUse" x="43" y="20" width="5" height="7">
<path d="M43.3076 20.2129H47.2139V26.8796H43.3076V20.2129Z" fill="white"/>
</mask>
<g mask="url(#mask5_955_33891)">
<path d="M44.5104 25.0514C44.5521 25.515 44.9635 25.8535 45.4271 25.8066C45.8906 25.7598 46.2292 25.3535 46.1823 24.89L45.8281 21.2598H44.1406L44.5104 25.0514Z" fill="white"/>
</g>
<path d="M41.2553 24.89C41.2084 25.3535 41.547 25.7598 42.0105 25.8066C42.4741 25.8535 42.8855 25.515 42.9272 25.0514L43.297 21.2598H41.6095L41.2553 24.89Z" fill="white"/>
<mask id="mask6_955_33891" style="mask-type:luminance" maskUnits="userSpaceOnUse" x="41" y="9" width="5" height="5">
<path d="M41.9746 9.69727H45.9746V13.5462H41.9746V9.69727Z" fill="white"/>
</mask>
<g mask="url(#mask6_955_33891)">
<path d="M44.5791 12.4941C44.9854 12.2181 45.251 11.7546 45.251 11.2285C45.251 10.3848 44.5635 9.69727 43.7197 9.69727C42.876 9.69727 42.1885 10.3848 42.1885 11.2285C42.1885 11.7546 42.4541 12.2181 42.8604 12.4941C43.1051 12.6608 43.402 12.7598 43.7197 12.7598C44.0374 12.7598 44.3343 12.6608 44.5791 12.4941Z" fill="white"/>
</g>
</svg>
