<svg width="61" height="61" viewBox="0 0 61 61" fill="none" xmlns="http://www.w3.org/2000/svg">
<mask id="mask0_955_33896" style="mask-type:luminance" maskUnits="userSpaceOnUse" x="0" y="0" width="61" height="61">
<path d="M0 0.0371094H60.5104V60.5475H0V0.0371094Z" fill="white"/>
</mask>
<g mask="url(#mask0_955_33896)">
<mask id="mask1_955_33896" style="mask-type:luminance" maskUnits="userSpaceOnUse" x="0" y="0" width="61" height="61">
<path d="M19.9844 0.0371094H40.526C45.8281 0.0371094 50.9062 2.14128 54.6562 5.89128C58.401 9.63607 60.5104 14.7194 60.5104 20.0215V40.5632C60.5104 45.8652 58.401 50.9434 54.6562 54.6934C50.9062 58.4382 45.8281 60.5475 40.526 60.5475H19.9844C14.6823 60.5475 9.59896 58.4382 5.85417 54.6934C2.10417 50.9434 0 45.8652 0 40.5632V20.0215C0 14.7194 2.10417 9.63607 5.85417 5.89128C9.59896 2.14128 14.6823 0.0371094 19.9844 0.0371094Z" fill="white"/>
</mask>
<g mask="url(#mask1_955_33896)">
<path d="M0 0.0371094H60.5104V60.5475H0V0.0371094Z" fill="#327BED"/>
</g>
</g>
<mask id="mask2_955_33896" style="mask-type:luminance" maskUnits="userSpaceOnUse" x="10" y="12" width="40" height="36">
<path d="M10.5312 12.6875H49.4948V47.6562H10.5312V12.6875Z" fill="white"/>
</mask>
<g mask="url(#mask2_955_33896)">
<path d="M29.8174 12.677C29.583 12.6822 29.3903 12.7655 29.2288 12.9322C29.0674 13.0989 28.9893 13.2968 28.9893 13.5259V18.5572C28.9893 18.7916 29.0674 18.9895 29.2341 19.1562C29.3955 19.3228 29.5934 19.4062 29.8278 19.4062C30.0622 19.4062 30.2601 19.3228 30.4268 19.1562C30.5882 18.9895 30.6715 18.7916 30.6663 18.5572V13.5259C30.6715 13.2916 30.5882 13.0884 30.4216 12.9218C30.2549 12.7551 30.0518 12.6718 29.8174 12.677ZM22.2861 13.5155C22.1455 13.5155 22.0101 13.5468 21.8903 13.6145C21.7653 13.677 21.6611 13.7707 21.583 13.8853C21.5049 14.0051 21.4632 14.1301 21.4476 14.2707C21.432 14.4114 21.4528 14.5468 21.5101 14.677L23.182 18.8645C23.2653 19.0937 23.4111 19.2551 23.6299 19.3541C23.8434 19.453 24.0622 19.4582 24.2861 19.3645C24.5049 19.2759 24.6611 19.1249 24.7497 18.9009C24.8434 18.6822 24.8382 18.4634 24.7393 18.2447L23.0622 14.052C22.9268 13.6978 22.6663 13.5155 22.2861 13.5155ZM37.3486 13.5155C36.9788 13.5312 36.7288 13.7082 36.5934 14.052L34.9163 18.2447C34.8226 18.4634 34.8174 18.6822 34.9059 18.9009C34.9945 19.1249 35.1507 19.2759 35.3695 19.3645C35.5934 19.453 35.8122 19.453 36.0309 19.3541C36.2445 19.2551 36.3955 19.0937 36.4736 18.8645L38.1507 14.677C38.2028 14.5468 38.2236 14.4062 38.208 14.2655C38.1924 14.1249 38.1455 13.9947 38.0622 13.8801C37.9841 13.7603 37.8799 13.6718 37.7497 13.6041C37.6247 13.5416 37.4893 13.5103 37.3486 13.5155ZM17.2549 18.5572C16.3278 18.5572 15.5778 19.3072 15.5778 20.2343V38.6718C15.5778 39.5989 16.3278 40.3489 17.2549 40.3489C18.182 40.3489 18.932 39.5989 18.932 38.6718V31.1301H23.1247V27.7759H18.932V20.2343C18.932 19.3072 18.182 18.5572 17.2549 18.5572ZM43.2393 18.5572C42.3122 18.5572 41.5622 19.3072 41.5622 20.2343V27.7759H38.208V31.1301H41.5622V38.6718C41.5622 39.5989 42.3122 40.3489 43.2393 40.3489C44.1663 40.3489 44.9163 39.5989 44.9163 38.6718V20.2343C44.9163 19.3072 44.1663 18.5572 43.2393 18.5572ZM12.2288 21.9062C11.3018 21.9062 10.5518 22.6562 10.5518 23.5832V35.3176C10.5518 36.2447 11.3018 36.9947 12.2288 36.9947C13.1507 36.9947 13.9059 36.2447 13.9059 35.3176V23.5832C13.9059 22.6562 13.1507 21.9062 12.2288 21.9062ZM28.9893 21.9062C28.0622 21.9062 27.3122 22.6562 27.3122 23.5832V24.4218C27.3122 23.4947 26.5622 22.7447 25.6403 22.7447C24.7132 22.7447 23.9632 23.4947 23.9632 24.4218V32.3853C23.9632 32.6145 23.7757 32.8072 23.5413 32.8072C23.3122 32.8072 23.1247 32.6197 23.1247 32.3853V31.9687H21.458C21.5726 33.9218 23.0518 37.2291 25.6403 37.7291L24.8018 47.8905H35.6976L34.8591 37.5572C36.3278 36.9791 37.3747 34.7187 37.3747 33.0468V25.2603C37.3747 24.3332 36.6195 23.5832 35.6976 23.5832C34.7705 23.5832 34.0205 24.3332 34.0205 25.2603V24.4218C34.0205 23.4947 33.2705 22.7447 32.3434 22.7447C31.4163 22.7447 30.6663 23.4947 30.6663 24.4218V23.5832C30.6663 22.6562 29.9163 21.9062 28.9893 21.9062ZM48.2705 21.9062C47.3434 21.9062 46.5934 22.6562 46.5934 23.5832V35.3176C46.5934 36.2447 47.3434 36.9947 48.2705 36.9947C49.1924 36.9947 49.9424 36.2447 49.9424 35.3176V23.5832C49.9424 22.6562 49.1924 21.9062 48.2705 21.9062Z" fill="white"/>
</g>
</svg>
