<svg width="61" height="61" viewBox="0 0 61 61" fill="none" xmlns="http://www.w3.org/2000/svg">
<mask id="mask0_955_33890" style="mask-type:luminance" maskUnits="userSpaceOnUse" x="0" y="0" width="61" height="61">
<path d="M0 0H60.5104V60.5104H0V0Z" fill="white"/>
</mask>
<g mask="url(#mask0_955_33890)">
<mask id="mask1_955_33890" style="mask-type:luminance" maskUnits="userSpaceOnUse" x="0" y="0" width="61" height="61">
<path d="M19.9844 0H40.526C45.8281 0 50.9115 2.10417 54.6562 5.85417C58.4062 9.59896 60.5104 14.6823 60.5104 19.9844V40.526C60.5104 45.8281 58.4062 50.9115 54.6562 54.6562C50.9115 58.4062 45.8281 60.5104 40.526 60.5104H19.9844C14.6823 60.5104 9.59896 58.4062 5.85417 54.6562C2.10417 50.9115 0 45.8281 0 40.526V19.9844C0 14.6823 2.10417 9.59896 5.85417 5.85417C9.59896 2.10417 14.6823 0 19.9844 0Z" fill="white"/>
</mask>
<g mask="url(#mask1_955_33890)">
<path d="M0 0H60.5104V60.5104H0V0Z" fill="#327BED"/>
</g>
</g>
<mask id="mask2_955_33890" style="mask-type:luminance" maskUnits="userSpaceOnUse" x="19" y="11" width="28" height="39">
<path d="M19.3076 11.354H46.6149V49.3175H19.3076V11.354Z" fill="white"/>
</mask>
<g mask="url(#mask2_955_33890)">
<path d="M24.3281 45.6248C24.3281 45.6248 23.4167 46.4321 23.2865 46.6457C23.151 46.8592 23.099 47.1353 22.75 47.3071L22.5156 47.4373V47.5676L22.3594 47.7863C22.3594 47.7863 21.6875 48.3748 21.5573 48.3957L21.1875 48.5259L20.8125 48.5884H20.6615V48.4165L20.75 48.3957L20.6615 48.2863L20.5312 48.3071L20.4688 48.0884L20.599 48.0467L20.5312 47.8905L20.3594 47.9373L20.2917 47.6769L20.401 47.6092L20.1875 46.9373L20.0573 46.9582L19.9896 46.6769H20.099L19.9896 46.3019L19.8177 46.3488L19.75 46.1092L19.9062 46.0467L19.75 45.7186L19.6406 45.6978V45.4998L19.7969 45.4373L19.8594 45.1978C19.8594 45.1978 19.9479 44.8957 20.0781 44.8071C20.2083 44.7186 20.5365 44.6769 20.6667 44.8071C20.7969 44.9373 21.0365 45.1769 21.0365 45.1769L21.1875 45.3488L21.3177 45.3696L21.5365 45.4165L21.6667 45.4373H21.9062L22.1875 45.3905L22.5156 45.2186L22.6875 45.0884L22.8177 44.828C22.8177 44.828 23.9062 43.4373 23.9688 43.2603C24.0365 43.0884 24.8177 41.8696 25.276 41.3488C25.7344 40.828 26.4479 40.0832 26.4479 40.0832L26.7552 39.604V39.3436L26.8385 38.9998L27.4062 37.953C27.4062 37.953 28.5365 36.1717 28.9688 35.953V35.8644L29.125 35.7342L29.2135 35.5623L29.3229 35.4113L29.5365 35.3019L29.625 35.2134L29.9062 34.8436L30.2812 34.1873L30.474 33.8644L30.7344 33.4738L30.8646 33.255L30.5833 32.8175L30.4323 32.4946V32.2082L30.4531 32.0363L30.4323 31.9269L30.1042 31.7551C30.1042 31.7551 29.974 31.6665 30.0156 31.5363L30.1458 31.2759L30.276 30.8853L30.3438 30.4686L30.1875 29.8176C30.1875 29.8176 29.8854 28.255 29.8854 28.1665C29.8854 28.078 29.6667 26.1405 29.6667 26.1405L29.5781 25.7707L29.4948 25.4686H29.2344L28.4948 26.4478C28.4948 26.4478 27.1875 27.9686 25.9948 28.5571L24.8646 29.2967L24.4062 29.6196L23.8438 30.078C23.8438 30.078 23.625 30.2082 23.5573 30.2082C23.4948 30.2082 23.3854 30.4478 22.974 30.5571C22.974 30.5571 22.6458 30.8592 22.3177 30.9009L22.3229 30.9061L22.2656 30.8853L22.2188 31.1717C22.2188 31.1717 22.3281 31.2759 22.151 31.2967C21.9792 31.3228 22.0885 31.3436 21.9792 31.3228C21.875 31.2967 21.8594 31.4165 21.8594 31.4165L21.474 31.4634L21.2969 31.5103H21.125L20.9062 31.4217L20.8177 31.2707L20.7292 31.0051C20.7292 31.0051 20.599 30.7915 20.7292 30.6353C20.8594 30.4842 21.0781 30.3332 21.0781 30.3332L21.3177 30.1353L21.6875 29.8957L22.1667 29.6821L22.4948 29.5519L22.7083 29.4217L22.8854 29.2446L23.3646 28.7707L23.4948 28.5051L23.625 28.3123L23.9479 28.0259L24.125 27.8748L24.3594 27.7238C24.3594 27.7238 24.9271 26.505 25.2552 26.2446C25.5781 25.979 25.7969 25.6769 25.7969 25.6769L26.1458 25.3488L26.4062 24.8957L26.6875 24.5936C26.6875 24.5936 26.9062 24.2655 26.9271 24.2238C26.9479 24.1769 26.9688 23.9582 27.0156 23.8957C27.0573 23.828 27.1458 23.7655 27.1458 23.7655L27.276 23.328L27.5104 22.4582L27.6667 22.1144C27.6667 22.1144 27.8385 21.8071 27.8854 21.7394C27.9271 21.6769 28.1458 21.1561 28.3646 21.005C28.5781 20.8488 29.1667 20.4165 29.1667 20.4165L29.2344 20.2863L28.9688 19.9842L28.9062 19.8957L28.8854 19.8071H28.7969C28.7969 19.8071 28.625 19.7394 28.599 19.6769C28.5781 19.6092 28.5573 19.2863 28.5573 19.2863L28.2292 19.1978C28.2292 19.1978 28.0781 19.0884 28.099 18.9582C28.1198 18.828 28.2552 18.1092 28.2552 18.1092C28.2552 18.1092 28.2083 17.9373 28.1458 17.9165C28.0781 17.8957 27.9688 17.7603 27.9688 17.7603C27.9688 17.7603 27.8438 17.5884 28.0156 16.6092L27.9062 16.4373H27.7083L27.6875 16.2603L27.7969 15.9165L27.9688 15.6092L28.4948 15.1092C28.4948 15.1092 30.7552 13.6769 31.776 15.2394C31.776 15.2394 32.4479 16.4165 32.6042 17.7655L32.5156 18.1769L32.4479 18.3957L32.7552 18.328C32.7552 18.328 32.9688 18.3071 33.0781 18.4373C33.1875 18.5675 33.2969 18.6769 33.2969 18.6769C33.2969 18.6769 33.7083 18.7655 34.0156 18.6769H34.4896C34.4896 18.6769 35.2552 18.3748 35.6458 18.2863C36.0365 18.1978 36.1458 18.0884 36.1458 18.0884L36.6875 18.0675C36.6875 18.0675 37.0365 17.979 37.0781 17.9582C37.125 17.9373 37.2344 17.9373 37.2344 17.9373L37.4948 17.8957C37.4948 17.8957 38.1667 17.4582 38.5156 17.2186C38.8646 16.979 39.1458 16.8488 39.1458 16.8488C39.1458 16.8488 39.4271 16.5207 39.5573 16.4373C39.6875 16.3488 40.2552 15.8957 40.9271 15.63C41.6042 15.3696 41.7552 15.1978 41.8177 15.1978C41.8854 15.1978 42.3385 14.9373 42.3385 14.9373L42.5573 14.6509L42.776 14.4998L43.0781 14.328L43.5365 14.0623L43.8854 13.8019H44.0573C44.0573 13.8019 44.1875 13.7134 44.2969 13.4998C44.4062 13.2811 44.6875 12.6717 44.6875 12.6717C44.6875 12.6717 44.8594 12.2394 45.0781 11.9738C45.2969 11.7134 45.599 11.4738 45.599 11.4738C45.599 11.4738 45.7969 11.3488 46.0365 11.4113C46.2708 11.4738 46.4896 11.5832 46.4896 11.5832L46.6406 11.8228L46.8177 12.0415V12.2811L46.6406 12.5207L46.5156 12.755C46.5156 12.755 46.4479 12.8436 46.3385 12.8228C46.2292 12.8019 46.2292 12.8019 46.2292 12.8019L46.1198 12.9113L45.9948 13.3644C45.9948 13.3644 45.7292 13.953 45.5781 14.0832C45.4271 14.2134 45.0573 14.4321 45.0573 14.4321C45.0573 14.4321 44.8854 14.5623 44.8438 14.63C44.7969 14.6925 44.6875 14.8436 44.6875 14.8436V14.9113L44.4688 15.1092C44.4688 15.1092 44.125 15.4113 44.0781 15.5623C44.0365 15.7134 43.9271 15.8019 43.9271 15.8019L43.2969 16.2342C43.2969 16.2342 41.5573 17.7811 41.3385 17.9738C41.125 18.1717 40.0365 18.953 40.0365 18.953L38.3385 20.2811L37.5208 20.953C37.5208 20.953 36.3906 21.8436 36.1927 22.953C36.1927 22.953 36.0833 27.2394 36.0417 27.8228C35.9948 28.4113 36.3021 31.0676 36.3021 31.0676L36.3646 31.7655L36.3438 32.0884C36.3438 32.0884 36.3021 32.1353 36.2552 32.1561C36.2135 32.1769 36.1719 32.3696 36.1719 32.3696L35.9062 33.3696C35.9062 33.3696 35.7135 33.7655 35.5156 33.828C35.3177 33.8957 35.3854 34.0259 35.3854 34.0259C35.3854 34.0259 35.8438 33.4373 37.9115 33.0675C39.974 32.6978 41.2396 32.328 41.2396 32.328L41.4115 32.1561L41.5417 32.0467L41.6302 32.0051L41.7604 31.7655L41.8698 31.6561C41.8698 31.6561 42.6302 30.6144 42.7604 30.5936C42.8906 30.5676 42.9115 30.4842 42.9115 30.4842L43.1927 30.5467L43.1719 30.6144L43.2396 30.6353L43.3698 30.5676H43.4323L43.6302 30.6561L43.6719 30.6978V30.7655L43.7188 30.828H43.849L44.1094 30.7863L44.2396 30.7394L44.3906 30.6978L44.5625 30.7394L44.6302 30.8071L44.7188 30.8488L44.8281 30.7863L45.0885 30.9165L45.0417 31.0259L45.2396 31.1978L45.3698 31.3071L45.4583 31.1978L45.6979 31.3957L45.6094 31.5051L45.8698 31.7655L46.0885 32.0259L46.1771 32.1353C46.1771 32.1353 46.3698 32.4165 46 32.4842C45.6302 32.5467 45.0208 32.6769 45.0208 32.6769L44.2188 32.8957C44.2188 32.8957 43.7188 33.0936 43.6094 33.1561C43.5 33.2238 43.3698 33.2446 43.3698 33.2446L43.2188 33.2655C43.2188 33.2655 42.3438 33.703 42.1719 33.7238C42 33.7446 41.8021 33.7655 41.7604 33.7863C41.7188 33.8071 41.3021 33.9634 41.3021 33.9634C41.3021 33.9634 39.6094 34.7655 39.2604 35.005C38.9115 35.2446 38.3906 35.4425 38.3906 35.4425L38.151 35.5311L37.2604 35.9634C37.2604 35.9634 36.2812 36.5936 35.9323 36.7915L35.651 36.9217L35.151 37.1821L34.8021 37.3123C34.8021 37.3123 34.0208 37.5728 33.7396 37.3332C33.4531 37.0936 33.2396 36.7446 33.2396 36.7446H32.974L32.7135 36.8957L32.4323 37.0259L32.2135 37.1561L31.9948 37.3123C31.9948 37.3123 31.8646 37.4842 31.8229 37.505C31.776 37.5259 31.625 37.5728 31.625 37.5728L31.3438 37.4634C31.3438 37.4634 30.3646 38.8748 29.8229 39.3123C29.276 39.7446 29.3229 39.7446 29.3229 39.7446L29.1927 39.8748C29.1927 39.8748 28.5833 40.7238 28.5833 40.8332C28.5833 40.9425 28.0365 42.1353 27.9531 42.4217C27.8646 42.703 26.0365 44.3332 25.4062 44.7655C24.776 45.1978 24.3281 45.6248 24.3281 45.6248Z" fill="white"/>
</g>
<mask id="mask3_955_33890" style="mask-type:luminance" maskUnits="userSpaceOnUse" x="13" y="43" width="7" height="7">
<path d="M13.6465 43.0469H19.3079V49.3177H13.6465V43.0469Z" fill="white"/>
</mask>
<g mask="url(#mask3_955_33890)">
<path d="M18.7663 46.599C18.7663 46.9323 18.7038 47.2552 18.5736 47.5677C18.4434 47.875 18.2611 48.151 18.0215 48.3906C17.7871 48.625 17.5111 48.8073 17.1986 48.9375C16.8913 49.0677 16.5684 49.1302 16.2298 49.1302C15.8965 49.1302 15.5736 49.0677 15.2611 48.9375C14.9486 48.8073 14.6777 48.625 14.4382 48.3906C14.1986 48.151 14.0163 47.875 13.8913 47.5677C13.7611 47.2552 13.6934 46.9323 13.6934 46.599C13.6934 46.2604 13.7611 45.9375 13.8913 45.625C14.0163 45.3177 14.1986 45.0417 14.4382 44.8021C14.6777 44.5677 14.9486 44.3854 15.2611 44.2552C15.5736 44.125 15.8965 44.0625 16.2298 44.0625C16.5684 44.0625 16.8913 44.125 17.1986 44.2552C17.5111 44.3854 17.7871 44.5677 18.0215 44.8021C18.2611 45.0417 18.4434 45.3177 18.5736 45.625C18.7038 45.9375 18.7663 46.2604 18.7663 46.599Z" fill="white"/>
</g>
</svg>
